<mxfile host="65bd71144e">
    <diagram id="3LbpVVGrSlx77f6oP_cp" name="Page-1">
        <mxGraphModel dx="2318" dy="1248" grid="1" gridSize="10" guides="1" tooltips="1" connect="1" arrows="1" fold="1" page="1" pageScale="1" pageWidth="850" pageHeight="1100" math="0" shadow="0">
            <root>
                <mxCell id="0"/>
                <mxCell id="1" parent="0"/>
                <mxCell id="18" value="Scripts" style="swimlane;rounded=0;fontStyle=1" parent="1" vertex="1">
                    <mxGeometry x="1370" y="200" width="200" height="200" as="geometry"/>
                </mxCell>
                <mxCell id="19" value="GameConfig" style="text;html=1;align=center;verticalAlign=middle;resizable=0;points=[];autosize=1;strokeColor=none;fillColor=none;" parent="18" vertex="1">
                    <mxGeometry x="10" y="50" width="80" height="20" as="geometry"/>
                </mxCell>
                <mxCell id="156" value="d" style="swimlane;fontStyle=0;childLayout=stackLayout;horizontal=1;startSize=30;horizontalStack=0;resizeParent=1;resizeParentMax=0;resizeLast=0;collapsible=1;marginBottom=0;rounded=1;shadow=1;glass=0;sketch=0;strokeColor=default;gradientColor=none;fillColor=none;fontColor=default;expand=1;treeFolding=0;treeMoving=0;moveCells=0;comic=0;" parent="1" vertex="1">
                    <mxGeometry x="1370" y="40" width="147" height="120" as="geometry">
                        <mxRectangle y="120" width="147" height="30" as="alternateBounds"/>
                    </mxGeometry>
                </mxCell>
                <mxCell id="157" value="Item 1" style="text;strokeColor=none;fillColor=none;align=left;verticalAlign=middle;spacingLeft=4;spacingRight=4;overflow=hidden;points=[[0,0.5],[1,0.5]];portConstraint=eastwest;rotatable=0;rounded=1;shadow=1;glass=0;sketch=0;" parent="156" vertex="1">
                    <mxGeometry y="30" width="147" height="30" as="geometry"/>
                </mxCell>
                <mxCell id="158" value="Item 2" style="text;strokeColor=none;fillColor=none;align=left;verticalAlign=middle;spacingLeft=4;spacingRight=4;overflow=hidden;points=[[0,0.5],[1,0.5]];portConstraint=eastwest;rotatable=0;rounded=1;shadow=1;glass=0;sketch=0;" parent="156" vertex="1">
                    <mxGeometry y="60" width="147" height="30" as="geometry"/>
                </mxCell>
                <mxCell id="159" value="Item 3" style="text;strokeColor=none;fillColor=none;align=left;verticalAlign=middle;spacingLeft=4;spacingRight=4;overflow=hidden;points=[[0,0.5],[1,0.5]];portConstraint=eastwest;rotatable=0;rounded=1;shadow=1;glass=0;sketch=0;" parent="156" vertex="1">
                    <mxGeometry y="90" width="147" height="30" as="geometry"/>
                </mxCell>
                <mxCell id="198" value="" style="edgeStyle=none;html=1;strokeColor=#33FF33;exitX=1;exitY=0.5;exitDx=0;exitDy=0;entryX=0;entryY=0;entryDx=0;entryDy=0;startArrow=none;" parent="1" source="274" target="193" edge="1">
                    <mxGeometry relative="1" as="geometry">
                        <mxPoint x="565" y="320" as="sourcePoint"/>
                        <mxPoint x="815" y="310" as="targetPoint"/>
                    </mxGeometry>
                </mxCell>
                <mxCell id="232" value="List" style="swimlane;fontStyle=0;childLayout=stackLayout;horizontal=1;startSize=30;horizontalStack=0;resizeParent=1;resizeParentMax=0;resizeLast=0;collapsible=1;marginBottom=0;rounded=1;shadow=1;glass=0;comic=0;sketch=0;fontFamily=Helvetica;fontSize=12;fontColor=default;strokeColor=#FFFFFF;fillColor=none;gradientColor=none;opacity=30;" parent="1" vertex="1">
                    <mxGeometry x="1385" y="455" width="140" height="230" as="geometry"/>
                </mxCell>
                <mxCell id="233" value="Item 1" style="text;strokeColor=none;fillColor=none;align=left;verticalAlign=middle;spacingLeft=4;spacingRight=4;overflow=hidden;points=[[0,0.5],[1,0.5]];portConstraint=eastwest;rotatable=0;rounded=1;shadow=1;glass=0;comic=0;sketch=0;fontFamily=Helvetica;fontSize=12;fontColor=default;startSize=30;opacity=30;" parent="232" vertex="1">
                    <mxGeometry y="30" width="140" height="30" as="geometry"/>
                </mxCell>
                <mxCell id="220" value="Colors" style="swimlane;fontStyle=3;childLayout=stackLayout;horizontal=1;startSize=40;horizontalStack=0;resizeParent=1;resizeParentMax=0;resizeLast=0;collapsible=1;marginBottom=0;rounded=1;shadow=1;glass=0;sketch=0;strokeColor=#314354;fillColor=#545E69;expand=1;treeFolding=0;treeMoving=0;moveCells=0;comic=0;arcSize=50;align=right;fontColor=#ffffff;" parent="232" vertex="1">
                    <mxGeometry y="60" width="140" height="70" as="geometry">
                        <mxRectangle x="30" width="117" height="30" as="alternateBounds"/>
                    </mxGeometry>
                </mxCell>
                <mxCell id="221" value="[ARRAY]5" style="text;strokeColor=none;fillColor=none;align=right;verticalAlign=middle;spacingLeft=4;spacingRight=4;overflow=hidden;points=[[0,0.5],[1,0.5]];portConstraint=eastwest;rotatable=0;rounded=1;shadow=1;glass=0;sketch=0;" parent="220" vertex="1">
                    <mxGeometry y="40" width="140" height="30" as="geometry"/>
                </mxCell>
                <mxCell id="237" value="Config" style="text;strokeColor=none;fillColor=none;align=left;verticalAlign=middle;spacingLeft=4;spacingRight=4;overflow=hidden;points=[[0,0.5],[1,0.5]];portConstraint=eastwest;rotatable=0;rounded=1;shadow=1;glass=0;comic=1;sketch=0;fontColor=default;opacity=30;labelBorderColor=default;horizontal=1;" parent="232" vertex="1">
                    <mxGeometry y="130" width="140" height="30" as="geometry"/>
                </mxCell>
                <mxCell id="174" value="MonoInstallers" style="swimlane;fontStyle=3;childLayout=stackLayout;horizontal=1;startSize=40;horizontalStack=0;resizeParent=1;resizeParentMax=0;resizeLast=0;collapsible=1;marginBottom=0;rounded=1;shadow=1;glass=0;sketch=0;strokeColor=#314354;fillColor=#647687;fontColor=#ffffff;expand=1;treeFolding=0;treeMoving=0;moveCells=0;comic=0;arcSize=50;" parent="232" vertex="1">
                    <mxGeometry y="160" width="140" height="70" as="geometry">
                        <mxRectangle x="30" width="117" height="30" as="alternateBounds"/>
                    </mxGeometry>
                </mxCell>
                <mxCell id="175" value="Â " style="text;strokeColor=none;fillColor=none;align=left;verticalAlign=middle;spacingLeft=4;spacingRight=4;overflow=hidden;points=[[0,0.5],[1,0.5]];portConstraint=eastwest;rotatable=0;rounded=1;shadow=1;glass=0;sketch=0;" parent="174" vertex="1">
                    <mxGeometry y="40" width="140" height="30" as="geometry"/>
                </mxCell>
                <mxCell id="266" style="edgeStyle=none;html=1;exitX=0;exitY=0;exitDx=90;exitDy=21.60708831721044;exitPerimeter=0;fontFamily=Helvetica;fontSize=12;fontColor=default;startSize=30;strokeColor=#007FFF;entryX=0;entryY=0.5;entryDx=0;entryDy=0;" parent="1" source="246" target="269" edge="1">
                    <mxGeometry relative="1" as="geometry">
                        <mxPoint x="450" y="150" as="targetPoint"/>
                        <Array as="points">
                            <mxPoint x="-117" y="135"/>
                        </Array>
                    </mxGeometry>
                </mxCell>
                <mxCell id="444" style="edgeStyle=none;html=1;exitX=0;exitY=0;exitDx=90;exitDy=78.39291168278956;exitPerimeter=0;entryX=0;entryY=0;entryDx=0;entryDy=0;strokeColor=#007FFF;" edge="1" parent="1" source="246" target="441">
                    <mxGeometry relative="1" as="geometry">
                        <Array as="points">
                            <mxPoint x="-117" y="914"/>
                        </Array>
                    </mxGeometry>
                </mxCell>
                <mxCell id="246" value="PREFAB" style="html=1;whiteSpace=wrap;shape=isoCube2;backgroundOutline=1;isoAngle=15;rounded=1;shadow=1;glass=0;comic=0;sketch=0;fontFamily=Helvetica;fontSize=12;fontColor=default;startSize=30;strokeColor=#3399FF;fillColor=default;gradientColor=none;" parent="1" vertex="1">
                    <mxGeometry x="-207.5" y="550" width="90" height="100" as="geometry"/>
                </mxCell>
                <mxCell id="252" value="SCRIPTS" style="shape=note;whiteSpace=wrap;html=1;backgroundOutline=1;darkOpacity=0.05;rounded=1;shadow=1;glass=0;comic=0;sketch=0;fontFamily=Helvetica;fontSize=12;fontColor=default;startSize=30;strokeColor=#9933FF;fillColor=default;gradientColor=none;" parent="1" vertex="1">
                    <mxGeometry x="-210" y="790" width="80" height="100" as="geometry"/>
                </mxCell>
                <mxCell id="258" style="edgeStyle=none;html=1;exitX=1;exitY=0.5;exitDx=0;exitDy=0;exitPerimeter=0;entryX=0;entryY=0.5;entryDx=0;entryDy=0;fontFamily=Helvetica;fontSize=12;fontColor=default;startSize=30;strokeColor=#FF33FF;" parent="1" source="253" target="190" edge="1">
                    <mxGeometry relative="1" as="geometry"/>
                </mxCell>
                <mxCell id="253" value="SCRIPTABLE&lt;br&gt;OBJECTS" style="shape=card;whiteSpace=wrap;html=1;rounded=1;shadow=1;glass=0;comic=0;sketch=0;fontFamily=Helvetica;fontSize=12;fontColor=default;startSize=30;strokeColor=#FF33FF;fillColor=default;gradientColor=none;" parent="1" vertex="1">
                    <mxGeometry x="-210" y="30" width="80" height="100" as="geometry"/>
                </mxCell>
                <mxCell id="244" style="edgeStyle=none;html=1;exitX=1;exitY=0.5;exitDx=0;exitDy=0;exitPerimeter=0;entryX=0;entryY=0.5;entryDx=0;entryDy=0;fontFamily=Helvetica;fontSize=12;fontColor=default;startSize=30;strokeColor=#B20000;fillColor=#e51400;" parent="1" source="67" target="204" edge="1">
                    <mxGeometry relative="1" as="geometry"/>
                </mxCell>
                <mxCell id="247" style="edgeStyle=none;html=1;exitX=1;exitY=0.5;exitDx=0;exitDy=0;entryX=0.5;entryY=1;entryDx=0;entryDy=0;entryPerimeter=0;fontFamily=Helvetica;fontSize=12;fontColor=default;startSize=30;strokeColor=#007FFF;fillColor=#f0a30a;" parent="1" source="279" target="66" edge="1">
                    <mxGeometry relative="1" as="geometry"/>
                </mxCell>
                <mxCell id="251" style="edgeStyle=none;html=1;exitX=0.5;exitY=0;exitDx=0;exitDy=0;exitPerimeter=0;entryX=0;entryY=0.5;entryDx=0;entryDy=0;fontFamily=Helvetica;fontSize=12;fontColor=default;startSize=30;strokeColor=#3399FF;" parent="1" source="246" target="279" edge="1">
                    <mxGeometry relative="1" as="geometry"/>
                </mxCell>
                <mxCell id="2" value="Scene Context" style="shape=cylinder3;whiteSpace=wrap;html=1;boundedLbl=1;backgroundOutline=1;size=15;fontFamily=Helvetica;fontSize=12;fontColor=rgb(240, 240, 240);align=center;strokeColor=rgb(240, 240, 240);fillColor=rgb(42, 42, 42);" parent="1" vertex="1">
                    <mxGeometry x="50" y="220" width="120" height="60" as="geometry"/>
                </mxCell>
                <mxCell id="384" style="edgeStyle=none;html=1;exitX=0.855;exitY=1;exitDx=0;exitDy=-4.35;exitPerimeter=0;entryX=0;entryY=0;entryDx=0;entryDy=0;fontFamily=Helvetica;fontSize=12;fontColor=default;startSize=30;strokeColor=#33FF33;" parent="1" source="66" target="378" edge="1">
                    <mxGeometry relative="1" as="geometry"/>
                </mxCell>
                <mxCell id="66" value="Start" style="shape=cylinder3;whiteSpace=wrap;html=1;boundedLbl=1;backgroundOutline=1;size=15;fontFamily=Helvetica;fontSize=12;fontColor=rgb(240, 240, 240);align=center;strokeColor=rgb(240, 240, 240);fillColor=rgb(42, 42, 42);" parent="1" vertex="1">
                    <mxGeometry x="50" y="320" width="120" height="60" as="geometry"/>
                </mxCell>
                <mxCell id="67" value="StartPoint" style="shape=cylinder3;whiteSpace=wrap;html=1;boundedLbl=1;backgroundOutline=1;size=15;fontFamily=Helvetica;fontSize=12;fontColor=rgb(240, 240, 240);align=center;strokeColor=rgb(240, 240, 240);fillColor=rgb(42, 42, 42);" parent="1" vertex="1">
                    <mxGeometry x="550" y="320" width="120" height="60" as="geometry"/>
                </mxCell>
                <mxCell id="68" value="" style="edgeStyle=none;html=1;" parent="1" source="66" target="67" edge="1">
                    <mxGeometry relative="1" as="geometry"/>
                </mxCell>
                <mxCell id="388" style="edgeStyle=none;html=1;exitX=0.5;exitY=1;exitDx=0;exitDy=0;exitPerimeter=0;entryX=1;entryY=0.5;entryDx=0;entryDy=0;fontFamily=Helvetica;fontSize=12;fontColor=#FF0000;startSize=30;strokeColor=#FF0000;" parent="1" source="249" target="387" edge="1">
                    <mxGeometry relative="1" as="geometry"/>
                </mxCell>
                <mxCell id="432" style="edgeStyle=none;html=1;exitX=0.5;exitY=1;exitDx=0;exitDy=0;exitPerimeter=0;entryX=1;entryY=0.5;entryDx=0;entryDy=0;strokeColor=#FF0000;" edge="1" parent="1" source="249" target="429">
                    <mxGeometry relative="1" as="geometry"/>
                </mxCell>
                <mxCell id="249" value="TriggerDetector" style="shape=cylinder3;whiteSpace=wrap;html=1;boundedLbl=1;backgroundOutline=1;size=15;fontFamily=Helvetica;fontSize=12;fontColor=rgb(240, 240, 240);align=center;strokeColor=rgb(240, 240, 240);fillColor=rgb(42, 42, 42);" parent="1" vertex="1">
                    <mxGeometry x="552.5" y="510" width="120" height="60" as="geometry"/>
                </mxCell>
                <mxCell id="250" value="" style="edgeStyle=none;html=1;fontFamily=Helvetica;fontSize=12;fontColor=default;startSize=30;strokeColor=#F0F0F0;entryX=0;entryY=0.5;entryDx=0;entryDy=0;entryPerimeter=0;exitX=1;exitY=1;exitDx=0;exitDy=-15;exitPerimeter=0;" parent="1" source="66" target="249" edge="1">
                    <mxGeometry relative="1" as="geometry"/>
                </mxCell>
                <mxCell id="302" style="edgeStyle=none;html=1;exitX=1;exitY=0.5;exitDx=0;exitDy=0;exitPerimeter=0;entryX=0;entryY=0;entryDx=0;entryDy=0;fontFamily=Helvetica;fontSize=12;fontColor=default;startSize=30;strokeColor=#33FF33;" parent="1" source="261" target="281" edge="1">
                    <mxGeometry relative="1" as="geometry"/>
                </mxCell>
                <mxCell id="261" value="Main Camera" style="shape=cylinder3;whiteSpace=wrap;html=1;boundedLbl=1;backgroundOutline=1;size=15;fontFamily=Helvetica;fontSize=12;fontColor=rgb(240, 240, 240);align=center;strokeColor=rgb(240, 240, 240);fillColor=rgb(42, 42, 42);" parent="1" vertex="1">
                    <mxGeometry x="42.5" y="1740" width="120" height="60" as="geometry"/>
                </mxCell>
                <mxCell id="262" value="Components" style="swimlane;fontStyle=0;childLayout=stackLayout;horizontal=1;startSize=30;horizontalStack=0;resizeParent=1;resizeParentMax=0;resizeLast=0;collapsible=1;marginBottom=0;rounded=1;shadow=1;glass=0;comic=0;sketch=0;fontFamily=Helvetica;fontSize=12;fontColor=default;strokeColor=#000000;fillColor=default;gradientColor=none;" parent="1" vertex="1">
                    <mxGeometry x="877.5" width="170" height="520" as="geometry">
                        <mxRectangle x="560" width="50" height="30" as="alternateBounds"/>
                    </mxGeometry>
                </mxCell>
                <mxCell id="193" value="SceneContext.cs" style="swimlane;fontStyle=1;childLayout=stackLayout;horizontal=1;startSize=30;horizontalStack=0;resizeParent=1;resizeParentMax=0;resizeLast=0;collapsible=1;marginBottom=0;rounded=1;shadow=1;glass=0;sketch=0;strokeColor=#432D57;fillColor=#76608a;expand=1;treeFolding=0;treeMoving=0;moveCells=0;comic=0;fontFamily=Lucida Console;fontSize=16;noLabel=0;direction=east;fixDash=0;container=0;fontColor=#ffffff;" parent="262" vertex="1">
                    <mxGeometry y="30" width="170" height="260" as="geometry">
                        <mxRectangle y="30" width="170" height="30" as="alternateBounds"/>
                    </mxGeometry>
                </mxCell>
                <mxCell id="190" value="Config" style="text;strokeColor=none;fillColor=none;align=left;verticalAlign=middle;spacingLeft=4;spacingRight=4;overflow=hidden;points=[[0,0.5],[1,0.5]];portConstraint=eastwest;rotatable=0;rounded=1;shadow=1;glass=0;comic=1;sketch=0;fontColor=default;opacity=30;labelBorderColor=default;horizontal=1;" parent="193" vertex="1">
                    <mxGeometry y="30" width="170" height="30" as="geometry"/>
                </mxCell>
                <mxCell id="196" value="Generator Settings" style="swimlane;fontStyle=3;childLayout=stackLayout;horizontal=1;startSize=20;horizontalStack=0;resizeParent=1;resizeParentMax=0;resizeLast=0;collapsible=1;marginBottom=0;rounded=1;shadow=1;glass=0;sketch=0;strokeColor=#314354;fillColor=#647687;fontColor=#ffffff;expand=1;treeFolding=0;treeMoving=0;moveCells=0;comic=0;arcSize=50;fontSize=13;opacity=40;" parent="193" vertex="1">
                    <mxGeometry y="60" width="170" height="100" as="geometry">
                        <mxRectangle x="30" width="117" height="30" as="alternateBounds"/>
                    </mxGeometry>
                </mxCell>
                <mxCell id="197" value="Floor Prefab" style="text;strokeColor=none;fillColor=none;align=center;verticalAlign=middle;spacingLeft=4;spacingRight=4;overflow=hidden;points=[[0,0.5],[1,0.5]];portConstraint=eastwest;rotatable=0;rounded=1;shadow=1;glass=0;sketch=0;" parent="196" vertex="1">
                    <mxGeometry y="20" width="170" height="20" as="geometry"/>
                </mxCell>
                <mxCell id="203" value="Crystal Prefab" style="text;strokeColor=none;fillColor=none;align=center;verticalAlign=middle;spacingLeft=4;spacingRight=4;overflow=hidden;points=[[0,0.5],[1,0.5]];portConstraint=eastwest;rotatable=0;rounded=1;shadow=1;glass=0;sketch=0;" parent="196" vertex="1">
                    <mxGeometry y="40" width="170" height="20" as="geometry"/>
                </mxCell>
                <mxCell id="204" value="Start" style="text;strokeColor=none;fillColor=none;align=center;verticalAlign=middle;spacingLeft=4;spacingRight=4;overflow=hidden;points=[[0,0.5],[1,0.5]];portConstraint=eastwest;rotatable=0;rounded=1;shadow=1;glass=0;sketch=0;" parent="196" vertex="1">
                    <mxGeometry y="60" width="170" height="20" as="geometry"/>
                </mxCell>
                <mxCell id="205" value="Crystal Spawn Prefab" style="text;strokeColor=none;fillColor=none;align=center;verticalAlign=middle;spacingLeft=4;spacingRight=4;overflow=hidden;points=[[0,0.5],[1,0.5]];portConstraint=eastwest;rotatable=0;rounded=1;shadow=1;glass=0;sketch=0;" parent="196" vertex="1">
                    <mxGeometry y="80" width="170" height="20" as="geometry"/>
                </mxCell>
                <mxCell id="213" value="Color Changer SettingsÂ Â Â Â " style="swimlane;fontStyle=3;childLayout=stackLayout;horizontal=1;startSize=20;horizontalStack=0;resizeParent=1;resizeParentMax=0;resizeLast=0;collapsible=1;marginBottom=0;rounded=1;shadow=1;glass=0;sketch=0;strokeColor=#314354;fillColor=#647687;fontColor=#ffffff;expand=1;treeFolding=0;treeMoving=0;moveCells=0;comic=0;arcSize=50;fontSize=13;opacity=40;" parent="193" vertex="1">
                    <mxGeometry y="160" width="170" height="100" as="geometry">
                        <mxRectangle x="30" width="117" height="30" as="alternateBounds"/>
                    </mxGeometry>
                </mxCell>
                <mxCell id="214" value="MaterialÂ Â Â Â " style="text;strokeColor=none;fillColor=none;align=center;verticalAlign=middle;spacingLeft=4;spacingRight=4;overflow=hidden;points=[[0,0.5],[1,0.5]];portConstraint=eastwest;rotatable=0;rounded=1;shadow=1;glass=0;sketch=0;" parent="213" vertex="1">
                    <mxGeometry y="20" width="170" height="20" as="geometry"/>
                </mxCell>
                <mxCell id="215" value="Change RateÂ Â Â Â " style="text;strokeColor=none;fillColor=none;align=center;verticalAlign=middle;spacingLeft=4;spacingRight=4;overflow=hidden;points=[[0,0.5],[1,0.5]];portConstraint=eastwest;rotatable=0;rounded=1;shadow=1;glass=0;sketch=0;" parent="213" vertex="1">
                    <mxGeometry y="40" width="170" height="20" as="geometry"/>
                </mxCell>
                <mxCell id="216" value="Change Speed" style="text;strokeColor=none;fillColor=none;align=center;verticalAlign=middle;spacingLeft=4;spacingRight=4;overflow=hidden;points=[[0,0.5],[1,0.5]];portConstraint=eastwest;rotatable=0;rounded=1;shadow=1;glass=0;sketch=0;" parent="213" vertex="1">
                    <mxGeometry y="60" width="170" height="20" as="geometry"/>
                </mxCell>
                <mxCell id="222" value="Colors [ARRAY]5" style="text;strokeColor=none;fillColor=none;align=center;verticalAlign=middle;spacingLeft=4;spacingRight=4;overflow=hidden;points=[[0,0.5],[1,0.5]];portConstraint=eastwest;rotatable=0;rounded=1;shadow=1;glass=0;sketch=0;" parent="213" vertex="1">
                    <mxGeometry y="80" width="170" height="20" as="geometry"/>
                </mxCell>
                <mxCell id="263" value="Â " style="text;strokeColor=none;fillColor=none;align=left;verticalAlign=middle;spacingLeft=4;spacingRight=4;overflow=hidden;points=[[0,0.5],[1,0.5]];portConstraint=eastwest;rotatable=0;rounded=1;shadow=1;glass=0;comic=0;sketch=0;fontFamily=Helvetica;fontSize=12;fontColor=default;startSize=30;" parent="262" vertex="1">
                    <mxGeometry y="290" width="170" height="50" as="geometry"/>
                </mxCell>
                <mxCell id="145" value="GameInstaller.cs" style="swimlane;fontStyle=1;childLayout=stackLayout;horizontal=1;startSize=30;horizontalStack=0;resizeParent=1;resizeParentMax=0;resizeLast=0;collapsible=1;marginBottom=0;rounded=1;shadow=1;glass=0;sketch=0;strokeColor=#432D57;fillColor=#76608a;expand=1;treeFolding=0;treeMoving=0;moveCells=0;comic=0;fontFamily=Lucida Console;fontSize=16;noLabel=0;direction=east;fixDash=0;container=0;fontColor=#ffffff;" parent="262" vertex="1">
                    <mxGeometry y="340" width="170" height="130" as="geometry">
                        <mxRectangle y="470" width="170" height="30" as="alternateBounds"/>
                    </mxGeometry>
                </mxCell>
                <mxCell id="238" value="AutoRun FALSE" style="text;strokeColor=none;fillColor=none;align=left;verticalAlign=middle;spacingLeft=4;spacingRight=4;overflow=hidden;points=[[0,0.5],[1,0.5]];portConstraint=eastwest;rotatable=0;rounded=1;shadow=1;glass=0;comic=1;sketch=0;fontColor=default;opacity=30;labelBorderColor=default;horizontal=1;" parent="145" vertex="1">
                    <mxGeometry y="30" width="170" height="30" as="geometry"/>
                </mxCell>
                <mxCell id="151" value="MonoInstallers&lt;List&gt;" style="swimlane;fontStyle=3;childLayout=stackLayout;horizontal=1;startSize=20;horizontalStack=0;resizeParent=1;resizeParentMax=0;resizeLast=0;collapsible=1;marginBottom=0;rounded=1;shadow=1;glass=0;sketch=0;strokeColor=#314354;fillColor=#647687;fontColor=#ffffff;expand=1;treeFolding=0;treeMoving=0;moveCells=0;comic=0;arcSize=50;opacity=40;" parent="145" vertex="1">
                    <mxGeometry y="60" width="170" height="40" as="geometry">
                        <mxRectangle x="30" width="117" height="30" as="alternateBounds"/>
                    </mxGeometry>
                </mxCell>
                <mxCell id="152" value="Self" style="text;strokeColor=none;fillColor=none;align=left;verticalAlign=middle;spacingLeft=4;spacingRight=4;overflow=hidden;points=[[0,0.5],[1,0.5]];portConstraint=eastwest;rotatable=0;rounded=1;shadow=1;glass=0;sketch=0;" parent="151" vertex="1">
                    <mxGeometry y="20" width="170" height="20" as="geometry"/>
                </mxCell>
                <mxCell id="243" value="Parent New Object Under FALSE" style="text;strokeColor=none;fillColor=none;align=left;verticalAlign=middle;spacingLeft=4;spacingRight=4;overflow=hidden;points=[[0,0.5],[1,0.5]];portConstraint=eastwest;rotatable=0;rounded=1;shadow=1;glass=0;comic=1;sketch=0;fontColor=default;opacity=30;labelBorderColor=default;horizontal=1;" parent="145" vertex="1">
                    <mxGeometry y="100" width="170" height="30" as="geometry"/>
                </mxCell>
                <mxCell id="377" value="Â " style="text;strokeColor=none;fillColor=none;align=left;verticalAlign=middle;spacingLeft=4;spacingRight=4;overflow=hidden;points=[[0,0.5],[1,0.5]];portConstraint=eastwest;rotatable=0;rounded=1;shadow=1;glass=0;comic=0;sketch=0;fontFamily=Helvetica;fontSize=12;fontColor=default;startSize=30;" parent="262" vertex="1">
                    <mxGeometry y="470" width="170" height="50" as="geometry"/>
                </mxCell>
                <mxCell id="270" style="edgeStyle=none;html=1;exitX=1;exitY=0.5;exitDx=0;exitDy=0;entryX=0;entryY=0.5;entryDx=0;entryDy=0;fontFamily=Helvetica;fontSize=12;fontColor=default;startSize=30;strokeColor=#007FFF;" parent="1" source="269" target="197" edge="1">
                    <mxGeometry relative="1" as="geometry"/>
                </mxCell>
                <mxCell id="271" style="edgeStyle=none;html=1;exitX=1;exitY=0.5;exitDx=0;exitDy=0;entryX=0;entryY=0.5;entryDx=0;entryDy=0;fontFamily=Helvetica;fontSize=12;fontColor=default;startSize=30;strokeColor=#007FFF;" parent="1" source="269" target="203" edge="1">
                    <mxGeometry relative="1" as="geometry"/>
                </mxCell>
                <mxCell id="272" style="edgeStyle=none;html=1;exitX=1;exitY=0.5;exitDx=0;exitDy=0;entryX=0;entryY=0.5;entryDx=0;entryDy=0;fontFamily=Helvetica;fontSize=12;fontColor=default;startSize=30;strokeColor=#007FFF;" parent="1" source="269" target="205" edge="1">
                    <mxGeometry relative="1" as="geometry"/>
                </mxCell>
                <mxCell id="269" value="" style="shape=sumEllipse;perimeter=ellipsePerimeter;whiteSpace=wrap;html=1;backgroundOutline=1;rounded=1;shadow=1;glass=0;comic=0;sketch=0;fontFamily=Helvetica;fontSize=12;fontColor=default;startSize=30;strokeColor=#007FFF;fillColor=default;gradientColor=none;" parent="1" vertex="1">
                    <mxGeometry x="615" y="120" width="30" height="30" as="geometry"/>
                </mxCell>
                <mxCell id="276" style="edgeStyle=none;html=1;exitX=1;exitY=0.5;exitDx=0;exitDy=0;entryX=0;entryY=0;entryDx=0;entryDy=0;fontFamily=Helvetica;fontSize=12;fontColor=default;startSize=30;strokeColor=#009999;" parent="1" source="274" target="145" edge="1">
                    <mxGeometry relative="1" as="geometry"/>
                </mxCell>
                <mxCell id="278" style="edgeStyle=none;html=1;exitX=1;exitY=0.5;exitDx=0;exitDy=0;entryX=0;entryY=0.5;entryDx=0;entryDy=0;fontFamily=Helvetica;fontSize=12;fontColor=default;startSize=30;strokeColor=#B20000;fillColor=#e51400;" parent="1" source="274" target="152" edge="1">
                    <mxGeometry relative="1" as="geometry"/>
                </mxCell>
                <mxCell id="274" value="" style="shape=sumEllipse;perimeter=ellipsePerimeter;whiteSpace=wrap;html=1;backgroundOutline=1;rounded=1;shadow=1;glass=0;comic=0;sketch=0;fontFamily=Helvetica;fontSize=12;fontColor=default;startSize=30;strokeColor=#009999;fillColor=default;gradientColor=none;" parent="1" vertex="1">
                    <mxGeometry x="615" y="235" width="30" height="30" as="geometry"/>
                </mxCell>
                <mxCell id="275" value="" style="edgeStyle=none;html=1;strokeColor=#009999;exitX=1;exitY=0.5;exitDx=0;exitDy=0;exitPerimeter=0;entryX=0;entryY=0.5;entryDx=0;entryDy=0;endArrow=none;" parent="1" source="2" target="274" edge="1">
                    <mxGeometry relative="1" as="geometry">
                        <mxPoint x="152.5999999999999" y="204.35000000000002" as="sourcePoint"/>
                        <mxPoint x="560" y="30" as="targetPoint"/>
                    </mxGeometry>
                </mxCell>
                <mxCell id="280" style="edgeStyle=none;html=1;exitX=1;exitY=0.5;exitDx=0;exitDy=0;entryX=0;entryY=0;entryDx=0;entryDy=37.5;entryPerimeter=0;fontFamily=Helvetica;fontSize=12;fontColor=default;startSize=30;strokeColor=#007FFF;" parent="1" source="279" target="249" edge="1">
                    <mxGeometry relative="1" as="geometry"/>
                </mxCell>
                <mxCell id="440" style="edgeStyle=none;html=1;exitX=0.5;exitY=1;exitDx=0;exitDy=0;entryX=0.5;entryY=0;entryDx=0;entryDy=0;entryPerimeter=0;strokeColor=#007FFF;fillColor=#0050ef;" edge="1" parent="1" source="441" target="389">
                    <mxGeometry relative="1" as="geometry"/>
                </mxCell>
                <mxCell id="279" value="" style="shape=sumEllipse;perimeter=ellipsePerimeter;whiteSpace=wrap;html=1;backgroundOutline=1;rounded=1;shadow=1;glass=0;comic=0;sketch=0;fontFamily=Helvetica;fontSize=12;fontColor=default;startSize=30;strokeColor=#007FFF;fillColor=default;gradientColor=none;" parent="1" vertex="1">
                    <mxGeometry x="82.5" y="530" width="30" height="30" as="geometry"/>
                </mxCell>
                <mxCell id="281" value="Components" style="swimlane;fontStyle=0;childLayout=stackLayout;horizontal=1;startSize=30;horizontalStack=0;resizeParent=1;resizeParentMax=0;resizeLast=0;collapsible=1;marginBottom=0;rounded=1;shadow=1;glass=0;comic=0;sketch=0;fontFamily=Helvetica;fontSize=12;fontColor=default;strokeColor=#000000;fillColor=default;gradientColor=none;" parent="1" vertex="1">
                    <mxGeometry x="267.5" y="1770" width="170" height="200" as="geometry">
                        <mxRectangle x="560" width="50" height="30" as="alternateBounds"/>
                    </mxGeometry>
                </mxCell>
                <mxCell id="282" value="Camera" style="swimlane;fontStyle=1;childLayout=stackLayout;horizontal=1;startSize=30;horizontalStack=0;resizeParent=1;resizeParentMax=0;resizeLast=0;collapsible=1;marginBottom=0;rounded=1;shadow=1;glass=0;sketch=0;strokeColor=#432D57;fillColor=#CC99FF;expand=1;treeFolding=0;treeMoving=0;moveCells=0;comic=0;fontFamily=Lucida Console;fontSize=16;noLabel=0;direction=east;fixDash=0;container=0;fontColor=#ffffff;opacity=10;" parent="281" vertex="1" collapsed="1">
                    <mxGeometry y="30" width="170" height="30" as="geometry">
                        <mxRectangle y="30" width="170" height="70" as="alternateBounds"/>
                    </mxGeometry>
                </mxCell>
                <mxCell id="300" value="AudioListener" style="swimlane;fontStyle=1;childLayout=stackLayout;horizontal=1;startSize=30;horizontalStack=0;resizeParent=1;resizeParentMax=0;resizeLast=0;collapsible=1;marginBottom=0;rounded=1;shadow=1;glass=0;sketch=0;strokeColor=#432D57;fillColor=#CC99FF;expand=1;treeFolding=0;treeMoving=0;moveCells=0;comic=0;fontFamily=Lucida Console;fontSize=16;noLabel=0;direction=east;fixDash=0;container=0;fontColor=#ffffff;opacity=10;" parent="281" vertex="1" collapsed="1">
                    <mxGeometry y="60" width="170" height="30" as="geometry">
                        <mxRectangle y="110" width="170" height="70" as="alternateBounds"/>
                    </mxGeometry>
                </mxCell>
                <mxCell id="301" value="Â " style="text;strokeColor=none;fillColor=none;align=left;verticalAlign=middle;spacingLeft=4;spacingRight=4;overflow=hidden;points=[[0,0.5],[1,0.5]];portConstraint=eastwest;rotatable=0;rounded=1;shadow=1;glass=0;comic=0;sketch=0;fontFamily=Helvetica;fontSize=12;fontColor=default;startSize=30;" parent="281" vertex="1">
                    <mxGeometry y="90" width="170" height="50" as="geometry"/>
                </mxCell>
                <mxCell id="295" value="GameMover.cs" style="swimlane;fontStyle=1;childLayout=stackLayout;horizontal=1;startSize=30;horizontalStack=0;resizeParent=1;resizeParentMax=0;resizeLast=0;collapsible=1;marginBottom=0;rounded=1;shadow=1;glass=0;sketch=0;strokeColor=#432D57;fillColor=#76608a;expand=1;treeFolding=0;treeMoving=0;moveCells=0;comic=0;fontFamily=Lucida Console;fontSize=16;noLabel=0;direction=east;fixDash=0;container=0;fontColor=#ffffff;" parent="281" vertex="1">
                    <mxGeometry y="140" width="170" height="60" as="geometry">
                        <mxRectangle y="470" width="170" height="30" as="alternateBounds"/>
                    </mxGeometry>
                </mxCell>
                <mxCell id="305" style="edgeStyle=none;html=1;exitX=1;exitY=0.5;exitDx=0;exitDy=0;exitPerimeter=0;entryX=0;entryY=0;entryDx=0;entryDy=0;fontFamily=Helvetica;fontSize=12;fontColor=default;startSize=30;strokeColor=#33FF33;" parent="1" source="306" target="307" edge="1">
                    <mxGeometry relative="1" as="geometry"/>
                </mxCell>
                <mxCell id="306" value="Directional Light" style="shape=cylinder3;whiteSpace=wrap;html=1;boundedLbl=1;backgroundOutline=1;size=15;fontFamily=Helvetica;fontSize=12;fontColor=rgb(240, 240, 240);align=center;strokeColor=rgb(240, 240, 240);fillColor=rgb(42, 42, 42);" parent="1" vertex="1">
                    <mxGeometry x="42.5" y="2040" width="120" height="60" as="geometry"/>
                </mxCell>
                <mxCell id="307" value="Components" style="swimlane;fontStyle=0;childLayout=stackLayout;horizontal=1;startSize=30;horizontalStack=0;resizeParent=1;resizeParentMax=0;resizeLast=0;collapsible=1;marginBottom=0;rounded=1;shadow=1;glass=0;comic=0;sketch=0;fontFamily=Helvetica;fontSize=12;fontColor=default;strokeColor=#000000;fillColor=default;gradientColor=none;" parent="1" vertex="1">
                    <mxGeometry x="267.5" y="2070" width="170" height="60" as="geometry">
                        <mxRectangle x="560" width="50" height="30" as="alternateBounds"/>
                    </mxGeometry>
                </mxCell>
                <mxCell id="308" value="Light" style="swimlane;fontStyle=1;childLayout=stackLayout;horizontal=1;startSize=30;horizontalStack=0;resizeParent=1;resizeParentMax=0;resizeLast=0;collapsible=1;marginBottom=0;rounded=1;shadow=1;glass=0;sketch=0;strokeColor=#432D57;fillColor=#CC99FF;expand=1;treeFolding=0;treeMoving=0;moveCells=0;comic=0;fontFamily=Lucida Console;fontSize=16;noLabel=0;direction=east;fixDash=0;container=0;fontColor=#ffffff;opacity=10;" parent="307" vertex="1" collapsed="1">
                    <mxGeometry y="30" width="170" height="30" as="geometry">
                        <mxRectangle y="30" width="170" height="70" as="alternateBounds"/>
                    </mxGeometry>
                </mxCell>
                <mxCell id="313" style="edgeStyle=none;html=1;exitX=1;exitY=0.5;exitDx=0;exitDy=0;exitPerimeter=0;entryX=0;entryY=0;entryDx=0;entryDy=0;fontFamily=Helvetica;fontSize=12;fontColor=default;startSize=30;strokeColor=#33FF33;" parent="1" source="314" target="315" edge="1">
                    <mxGeometry relative="1" as="geometry"/>
                </mxCell>
                <mxCell id="330" style="edgeStyle=none;html=1;exitX=0.5;exitY=1;exitDx=0;exitDy=0;exitPerimeter=0;entryX=0.5;entryY=0;entryDx=0;entryDy=0;entryPerimeter=0;fontFamily=Helvetica;fontSize=12;fontColor=default;startSize=30;strokeColor=#F0F0F0;" parent="1" source="314" target="326" edge="1">
                    <mxGeometry relative="1" as="geometry"/>
                </mxCell>
                <mxCell id="314" value="Score Canvas" style="shape=cylinder3;whiteSpace=wrap;html=1;boundedLbl=1;backgroundOutline=1;size=15;fontFamily=Helvetica;fontSize=12;fontColor=rgb(240, 240, 240);align=center;strokeColor=rgb(240, 240, 240);fillColor=rgb(42, 42, 42);" parent="1" vertex="1">
                    <mxGeometry x="42.5" y="2250" width="120" height="60" as="geometry"/>
                </mxCell>
                <mxCell id="315" value="Components" style="swimlane;fontStyle=0;childLayout=stackLayout;horizontal=1;startSize=30;horizontalStack=0;resizeParent=1;resizeParentMax=0;resizeLast=0;collapsible=1;marginBottom=0;rounded=1;shadow=1;glass=0;comic=0;sketch=0;fontFamily=Helvetica;fontSize=12;fontColor=default;strokeColor=#000000;fillColor=default;gradientColor=none;" parent="1" vertex="1">
                    <mxGeometry x="267.5" y="2280" width="170" height="200" as="geometry">
                        <mxRectangle x="560" width="50" height="30" as="alternateBounds"/>
                    </mxGeometry>
                </mxCell>
                <mxCell id="316" value="Canvas" style="swimlane;fontStyle=1;childLayout=stackLayout;horizontal=1;startSize=30;horizontalStack=0;resizeParent=1;resizeParentMax=0;resizeLast=0;collapsible=1;marginBottom=0;rounded=1;shadow=1;glass=0;sketch=0;strokeColor=#432D57;fillColor=#CC99FF;expand=1;treeFolding=0;treeMoving=0;moveCells=0;comic=0;fontFamily=Lucida Console;fontSize=16;noLabel=0;direction=east;fixDash=0;container=0;fontColor=#ffffff;opacity=10;" parent="315" vertex="1" collapsed="1">
                    <mxGeometry y="30" width="170" height="30" as="geometry">
                        <mxRectangle y="30" width="170" height="70" as="alternateBounds"/>
                    </mxGeometry>
                </mxCell>
                <mxCell id="319" value="CanvasScalar" style="swimlane;fontStyle=1;childLayout=stackLayout;horizontal=1;startSize=30;horizontalStack=0;resizeParent=1;resizeParentMax=0;resizeLast=0;collapsible=1;marginBottom=0;rounded=1;shadow=1;glass=0;sketch=0;strokeColor=#432D57;fillColor=#CC99FF;expand=1;treeFolding=0;treeMoving=0;moveCells=0;comic=0;fontFamily=Lucida Console;fontSize=16;noLabel=0;direction=east;fixDash=0;container=0;fontColor=#ffffff;opacity=10;" parent="315" vertex="1" collapsed="1">
                    <mxGeometry y="60" width="170" height="30" as="geometry">
                        <mxRectangle y="30" width="170" height="70" as="alternateBounds"/>
                    </mxGeometry>
                </mxCell>
                <mxCell id="318" value="Â " style="text;strokeColor=none;fillColor=none;align=left;verticalAlign=middle;spacingLeft=4;spacingRight=4;overflow=hidden;points=[[0,0.5],[1,0.5]];portConstraint=eastwest;rotatable=0;rounded=1;shadow=1;glass=0;comic=0;sketch=0;fontFamily=Helvetica;fontSize=12;fontColor=default;startSize=30;" parent="315" vertex="1">
                    <mxGeometry y="90" width="170" height="50" as="geometry"/>
                </mxCell>
                <mxCell id="321" value="ScoreView" style="swimlane;fontStyle=1;childLayout=stackLayout;horizontal=1;startSize=30;horizontalStack=0;resizeParent=1;resizeParentMax=0;resizeLast=0;collapsible=1;marginBottom=0;rounded=1;shadow=1;glass=0;sketch=0;strokeColor=#432D57;fillColor=#76608a;expand=1;treeFolding=0;treeMoving=0;moveCells=0;comic=0;fontFamily=Lucida Console;fontSize=16;noLabel=0;direction=east;fixDash=0;container=0;fontColor=#ffffff;" parent="315" vertex="1">
                    <mxGeometry y="140" width="170" height="60" as="geometry">
                        <mxRectangle y="190" width="170" height="30" as="alternateBounds"/>
                    </mxGeometry>
                </mxCell>
                <mxCell id="322" value="ScoreCounter" style="text;strokeColor=none;fillColor=none;align=left;verticalAlign=middle;spacingLeft=4;spacingRight=4;overflow=hidden;points=[[0,0.5],[1,0.5]];portConstraint=eastwest;rotatable=0;rounded=1;shadow=1;glass=0;comic=1;sketch=0;fontColor=default;opacity=30;labelBorderColor=default;horizontal=1;" parent="321" vertex="1">
                    <mxGeometry y="30" width="170" height="30" as="geometry"/>
                </mxCell>
                <mxCell id="324" style="edgeStyle=none;html=1;entryX=0;entryY=0.5;entryDx=0;entryDy=0;fontFamily=Helvetica;fontSize=12;fontColor=default;startSize=30;strokeColor=#B20000;exitX=1.034;exitY=0.875;exitDx=0;exitDy=0;exitPerimeter=0;fillColor=#e51400;" parent="1" source="314" target="322" edge="1">
                    <mxGeometry relative="1" as="geometry">
                        <mxPoint x="42.5" y="2490" as="sourcePoint"/>
                    </mxGeometry>
                </mxCell>
                <mxCell id="331" style="edgeStyle=none;html=1;entryX=0;entryY=0.5;entryDx=0;entryDy=0;fontFamily=Helvetica;fontSize=12;fontColor=default;startSize=30;strokeColor=#99CCFF;exitX=1;exitY=0.5;exitDx=0;exitDy=0;" parent="1" source="332" target="328" edge="1">
                    <mxGeometry relative="1" as="geometry">
                        <mxPoint x="32.5" y="2400" as="sourcePoint"/>
                    </mxGeometry>
                </mxCell>
                <mxCell id="335" style="edgeStyle=none;html=1;exitX=1;exitY=0.5;exitDx=0;exitDy=0;entryX=0;entryY=0.5;entryDx=0;entryDy=0;fontFamily=Helvetica;fontSize=12;fontColor=default;startSize=30;strokeColor=#99CCFF;" parent="1" source="323" target="332" edge="1">
                    <mxGeometry relative="1" as="geometry"/>
                </mxCell>
                <mxCell id="357" style="edgeStyle=none;html=1;exitX=0.5;exitY=1;exitDx=0;exitDy=0;entryX=0.5;entryY=0;entryDx=0;entryDy=0;fontFamily=Helvetica;fontSize=12;fontColor=default;startSize=30;strokeColor=#99CCFF;" parent="1" source="323" target="356" edge="1">
                    <mxGeometry relative="1" as="geometry"/>
                </mxCell>
                <mxCell id="323" value="PLUGINS" style="rounded=1;whiteSpace=wrap;html=1;strokeWidth=2;fillWeight=4;hachureGap=8;hachureAngle=45;fillColor=#1ba1e2;sketch=1;shadow=1;glass=0;comic=0;fontFamily=Helvetica;fontSize=12;fontColor=default;startSize=30;" parent="1" vertex="1">
                    <mxGeometry x="-167.5" y="2485" width="120" height="60" as="geometry"/>
                </mxCell>
                <mxCell id="325" style="edgeStyle=none;html=1;exitX=1;exitY=0.5;exitDx=0;exitDy=0;exitPerimeter=0;entryX=0;entryY=0;entryDx=0;entryDy=0;fontFamily=Helvetica;fontSize=12;fontColor=default;startSize=30;strokeColor=#33FF33;" parent="1" source="326" target="327" edge="1">
                    <mxGeometry relative="1" as="geometry"/>
                </mxCell>
                <mxCell id="326" value="Directional Light" style="shape=cylinder3;whiteSpace=wrap;html=1;boundedLbl=1;backgroundOutline=1;size=15;fontFamily=Helvetica;fontSize=12;fontColor=rgb(240, 240, 240);align=center;strokeColor=rgb(240, 240, 240);fillColor=rgb(42, 42, 42);" parent="1" vertex="1">
                    <mxGeometry x="137.5" y="2550" width="120" height="60" as="geometry"/>
                </mxCell>
                <mxCell id="327" value="Components" style="swimlane;fontStyle=0;childLayout=stackLayout;horizontal=1;startSize=30;horizontalStack=0;resizeParent=1;resizeParentMax=0;resizeLast=0;collapsible=1;marginBottom=0;rounded=1;shadow=1;glass=0;comic=0;sketch=0;fontFamily=Helvetica;fontSize=12;fontColor=default;strokeColor=#000000;fillColor=default;gradientColor=none;" parent="1" vertex="1">
                    <mxGeometry x="362.5" y="2580" width="205" height="110" as="geometry">
                        <mxRectangle x="560" width="50" height="30" as="alternateBounds"/>
                    </mxGeometry>
                </mxCell>
                <mxCell id="328" value="TextMeshPro - Text" style="swimlane;fontStyle=1;childLayout=stackLayout;horizontal=1;startSize=30;horizontalStack=0;resizeParent=1;resizeParentMax=0;resizeLast=0;collapsible=1;marginBottom=0;rounded=1;shadow=1;glass=0;sketch=0;strokeColor=#432D57;fillColor=#CC99FF;expand=1;treeFolding=0;treeMoving=0;moveCells=0;comic=0;fontFamily=Lucida Console;fontSize=16;noLabel=0;direction=east;fixDash=0;container=0;fontColor=#ffffff;opacity=10;" parent="327" vertex="1" collapsed="1">
                    <mxGeometry y="30" width="205" height="30" as="geometry">
                        <mxRectangle y="30" width="170" height="70" as="alternateBounds"/>
                    </mxGeometry>
                </mxCell>
                <mxCell id="329" value="Â " style="text;strokeColor=none;fillColor=none;align=left;verticalAlign=middle;spacingLeft=4;spacingRight=4;overflow=hidden;points=[[0,0.5],[1,0.5]];portConstraint=eastwest;rotatable=0;rounded=1;shadow=1;glass=0;comic=0;sketch=0;fontFamily=Helvetica;fontSize=12;fontColor=default;startSize=30;" parent="327" vertex="1">
                    <mxGeometry y="60" width="205" height="50" as="geometry"/>
                </mxCell>
                <mxCell id="332" value="" style="shape=sumEllipse;perimeter=ellipsePerimeter;whiteSpace=wrap;html=1;backgroundOutline=1;rounded=1;shadow=1;glass=0;comic=0;sketch=0;fontFamily=Helvetica;fontSize=12;fontColor=default;startSize=30;strokeColor=#99CCFF;fillColor=default;gradientColor=none;" parent="1" vertex="1">
                    <mxGeometry x="-47.5" y="2610" width="30" height="30" as="geometry"/>
                </mxCell>
                <mxCell id="336" style="edgeStyle=none;html=1;exitX=1;exitY=0.5;exitDx=0;exitDy=0;exitPerimeter=0;entryX=0;entryY=0;entryDx=0;entryDy=0;fontFamily=Helvetica;fontSize=12;fontColor=default;startSize=30;strokeColor=#33FF33;" parent="1" source="338" target="339" edge="1">
                    <mxGeometry relative="1" as="geometry"/>
                </mxCell>
                <mxCell id="337" style="edgeStyle=none;html=1;exitX=0.5;exitY=1;exitDx=0;exitDy=0;exitPerimeter=0;entryX=0.5;entryY=0;entryDx=0;entryDy=0;entryPerimeter=0;fontFamily=Helvetica;fontSize=12;fontColor=default;startSize=30;strokeColor=#F0F0F0;" parent="1" source="338" target="352" edge="1">
                    <mxGeometry relative="1" as="geometry"/>
                </mxCell>
                <mxCell id="338" value="Score Canvas" style="shape=cylinder3;whiteSpace=wrap;html=1;boundedLbl=1;backgroundOutline=1;size=15;fontFamily=Helvetica;fontSize=12;fontColor=rgb(240, 240, 240);align=center;strokeColor=rgb(240, 240, 240);fillColor=rgb(42, 42, 42);" parent="1" vertex="1">
                    <mxGeometry x="50" y="2710" width="120" height="60" as="geometry"/>
                </mxCell>
                <mxCell id="339" value="Components" style="swimlane;fontStyle=0;childLayout=stackLayout;horizontal=1;startSize=30;horizontalStack=0;resizeParent=1;resizeParentMax=0;resizeLast=0;collapsible=1;marginBottom=0;rounded=1;shadow=1;glass=0;comic=0;sketch=0;fontFamily=Helvetica;fontSize=12;fontColor=default;strokeColor=#000000;fillColor=default;gradientColor=none;" parent="1" vertex="1">
                    <mxGeometry x="275" y="2740" width="170" height="200" as="geometry">
                        <mxRectangle x="560" width="50" height="30" as="alternateBounds"/>
                    </mxGeometry>
                </mxCell>
                <mxCell id="340" value="Canvas" style="swimlane;fontStyle=1;childLayout=stackLayout;horizontal=1;startSize=30;horizontalStack=0;resizeParent=1;resizeParentMax=0;resizeLast=0;collapsible=1;marginBottom=0;rounded=1;shadow=1;glass=0;sketch=0;strokeColor=#432D57;fillColor=#CC99FF;expand=1;treeFolding=0;treeMoving=0;moveCells=0;comic=0;fontFamily=Lucida Console;fontSize=16;noLabel=0;direction=east;fixDash=0;container=0;fontColor=#ffffff;opacity=10;" parent="339" vertex="1" collapsed="1">
                    <mxGeometry y="30" width="170" height="30" as="geometry">
                        <mxRectangle y="30" width="170" height="70" as="alternateBounds"/>
                    </mxGeometry>
                </mxCell>
                <mxCell id="342" value="CanvasScalar" style="swimlane;fontStyle=1;childLayout=stackLayout;horizontal=1;startSize=30;horizontalStack=0;resizeParent=1;resizeParentMax=0;resizeLast=0;collapsible=1;marginBottom=0;rounded=1;shadow=1;glass=0;sketch=0;strokeColor=#432D57;fillColor=#CC99FF;expand=1;treeFolding=0;treeMoving=0;moveCells=0;comic=0;fontFamily=Lucida Console;fontSize=16;noLabel=0;direction=east;fixDash=0;container=0;fontColor=#ffffff;opacity=10;" parent="339" vertex="1" collapsed="1">
                    <mxGeometry y="60" width="170" height="30" as="geometry">
                        <mxRectangle y="30" width="170" height="70" as="alternateBounds"/>
                    </mxGeometry>
                </mxCell>
                <mxCell id="343" value="Â " style="text;strokeColor=none;fillColor=none;align=left;verticalAlign=middle;spacingLeft=4;spacingRight=4;overflow=hidden;points=[[0,0.5],[1,0.5]];portConstraint=eastwest;rotatable=0;rounded=1;shadow=1;glass=0;comic=0;sketch=0;fontFamily=Helvetica;fontSize=12;fontColor=default;startSize=30;" parent="339" vertex="1">
                    <mxGeometry y="90" width="170" height="50" as="geometry"/>
                </mxCell>
                <mxCell id="344" value="TapView" style="swimlane;fontStyle=1;childLayout=stackLayout;horizontal=1;startSize=30;horizontalStack=0;resizeParent=1;resizeParentMax=0;resizeLast=0;collapsible=1;marginBottom=0;rounded=1;shadow=1;glass=0;sketch=0;strokeColor=#432D57;fillColor=#76608a;expand=1;treeFolding=0;treeMoving=0;moveCells=0;comic=0;fontFamily=Lucida Console;fontSize=16;noLabel=0;direction=east;fixDash=0;container=0;fontColor=#ffffff;" parent="339" vertex="1">
                    <mxGeometry y="140" width="170" height="60" as="geometry">
                        <mxRectangle y="190" width="170" height="30" as="alternateBounds"/>
                    </mxGeometry>
                </mxCell>
                <mxCell id="345" value="ScoreCounter" style="text;strokeColor=none;fillColor=none;align=left;verticalAlign=middle;spacingLeft=4;spacingRight=4;overflow=hidden;points=[[0,0.5],[1,0.5]];portConstraint=eastwest;rotatable=0;rounded=1;shadow=1;glass=0;comic=1;sketch=0;fontColor=default;opacity=30;labelBorderColor=default;horizontal=1;" parent="344" vertex="1">
                    <mxGeometry y="30" width="170" height="30" as="geometry"/>
                </mxCell>
                <mxCell id="347" style="edgeStyle=none;html=1;entryX=0;entryY=0.5;entryDx=0;entryDy=0;fontFamily=Helvetica;fontSize=12;fontColor=default;startSize=30;strokeColor=#B20000;exitX=1.034;exitY=0.875;exitDx=0;exitDy=0;exitPerimeter=0;fillColor=#e51400;" parent="1" source="338" target="345" edge="1">
                    <mxGeometry relative="1" as="geometry">
                        <mxPoint x="50" y="2950" as="sourcePoint"/>
                    </mxGeometry>
                </mxCell>
                <mxCell id="348" style="edgeStyle=none;html=1;entryX=0;entryY=0.5;entryDx=0;entryDy=0;fontFamily=Helvetica;fontSize=12;fontColor=default;startSize=30;strokeColor=#99CCFF;exitX=1;exitY=0.5;exitDx=0;exitDy=0;" parent="1" source="356" target="354" edge="1">
                    <mxGeometry relative="1" as="geometry">
                        <mxPoint x="50" y="2850" as="sourcePoint"/>
                    </mxGeometry>
                </mxCell>
                <mxCell id="351" style="edgeStyle=none;html=1;exitX=1;exitY=0.5;exitDx=0;exitDy=0;exitPerimeter=0;entryX=0;entryY=0;entryDx=0;entryDy=0;fontFamily=Helvetica;fontSize=12;fontColor=default;startSize=30;strokeColor=#33FF33;" parent="1" source="352" target="353" edge="1">
                    <mxGeometry relative="1" as="geometry"/>
                </mxCell>
                <mxCell id="352" value="Directional Light" style="shape=cylinder3;whiteSpace=wrap;html=1;boundedLbl=1;backgroundOutline=1;size=15;fontFamily=Helvetica;fontSize=12;fontColor=rgb(240, 240, 240);align=center;strokeColor=rgb(240, 240, 240);fillColor=rgb(42, 42, 42);" parent="1" vertex="1">
                    <mxGeometry x="155" y="3000" width="120" height="60" as="geometry"/>
                </mxCell>
                <mxCell id="353" value="Components" style="swimlane;fontStyle=0;childLayout=stackLayout;horizontal=1;startSize=30;horizontalStack=0;resizeParent=1;resizeParentMax=0;resizeLast=0;collapsible=1;marginBottom=0;rounded=1;shadow=1;glass=0;comic=0;sketch=0;fontFamily=Helvetica;fontSize=12;fontColor=default;strokeColor=#000000;fillColor=default;gradientColor=none;" parent="1" vertex="1">
                    <mxGeometry x="380" y="3030" width="205" height="110" as="geometry">
                        <mxRectangle x="560" width="50" height="30" as="alternateBounds"/>
                    </mxGeometry>
                </mxCell>
                <mxCell id="354" value="TextMeshPro - Text" style="swimlane;fontStyle=1;childLayout=stackLayout;horizontal=1;startSize=30;horizontalStack=0;resizeParent=1;resizeParentMax=0;resizeLast=0;collapsible=1;marginBottom=0;rounded=1;shadow=1;glass=0;sketch=0;strokeColor=#432D57;fillColor=#CC99FF;expand=1;treeFolding=0;treeMoving=0;moveCells=0;comic=0;fontFamily=Lucida Console;fontSize=16;noLabel=0;direction=east;fixDash=0;container=0;fontColor=#ffffff;opacity=10;" parent="353" vertex="1" collapsed="1">
                    <mxGeometry y="30" width="205" height="30" as="geometry">
                        <mxRectangle y="30" width="170" height="70" as="alternateBounds"/>
                    </mxGeometry>
                </mxCell>
                <mxCell id="355" value="Â " style="text;strokeColor=none;fillColor=none;align=left;verticalAlign=middle;spacingLeft=4;spacingRight=4;overflow=hidden;points=[[0,0.5],[1,0.5]];portConstraint=eastwest;rotatable=0;rounded=1;shadow=1;glass=0;comic=0;sketch=0;fontFamily=Helvetica;fontSize=12;fontColor=default;startSize=30;" parent="353" vertex="1">
                    <mxGeometry y="60" width="205" height="50" as="geometry"/>
                </mxCell>
                <mxCell id="356" value="" style="shape=sumEllipse;perimeter=ellipsePerimeter;whiteSpace=wrap;html=1;backgroundOutline=1;rounded=1;shadow=1;glass=0;comic=0;sketch=0;fontFamily=Helvetica;fontSize=12;fontColor=default;startSize=30;strokeColor=#99CCFF;fillColor=default;gradientColor=none;" parent="1" vertex="1">
                    <mxGeometry x="-117.5" y="3060" width="30" height="30" as="geometry"/>
                </mxCell>
                <mxCell id="359" style="edgeStyle=none;html=1;exitX=1;exitY=0.5;exitDx=0;exitDy=0;exitPerimeter=0;entryX=0;entryY=0;entryDx=0;entryDy=0;fontFamily=Helvetica;fontSize=12;fontColor=default;startSize=30;strokeColor=#33FF33;" parent="1" source="360" target="361" edge="1">
                    <mxGeometry relative="1" as="geometry"/>
                </mxCell>
                <mxCell id="360" value="Event System" style="shape=cylinder3;whiteSpace=wrap;html=1;boundedLbl=1;backgroundOutline=1;size=15;fontFamily=Helvetica;fontSize=12;fontColor=rgb(240, 240, 240);align=center;strokeColor=rgb(240, 240, 240);fillColor=rgb(42, 42, 42);" parent="1" vertex="1">
                    <mxGeometry x="72.5" y="3210" width="120" height="60" as="geometry"/>
                </mxCell>
                <mxCell id="361" value="Components" style="swimlane;fontStyle=0;childLayout=stackLayout;horizontal=1;startSize=30;horizontalStack=0;resizeParent=1;resizeParentMax=0;resizeLast=0;collapsible=1;marginBottom=0;rounded=1;shadow=1;glass=0;comic=0;sketch=0;fontFamily=Helvetica;fontSize=12;fontColor=default;strokeColor=#000000;fillColor=default;gradientColor=none;" parent="1" vertex="1">
                    <mxGeometry x="297.5" y="3240" width="205" height="190" as="geometry">
                        <mxRectangle x="560" width="50" height="30" as="alternateBounds"/>
                    </mxGeometry>
                </mxCell>
                <mxCell id="362" value="EventSystem" style="swimlane;fontStyle=1;childLayout=stackLayout;horizontal=1;startSize=30;horizontalStack=0;resizeParent=1;resizeParentMax=0;resizeLast=0;collapsible=1;marginBottom=0;rounded=1;shadow=1;glass=0;sketch=0;strokeColor=#432D57;fillColor=#CC99FF;expand=1;treeFolding=0;treeMoving=0;moveCells=0;comic=0;fontFamily=Lucida Console;fontSize=16;noLabel=0;direction=east;fixDash=0;container=0;fontColor=#ffffff;opacity=10;" parent="361" vertex="1" collapsed="1">
                    <mxGeometry y="30" width="205" height="30" as="geometry">
                        <mxRectangle y="30" width="170" height="70" as="alternateBounds"/>
                    </mxGeometry>
                </mxCell>
                <mxCell id="363" value="Â " style="text;strokeColor=none;fillColor=none;align=left;verticalAlign=middle;spacingLeft=4;spacingRight=4;overflow=hidden;points=[[0,0.5],[1,0.5]];portConstraint=eastwest;rotatable=0;rounded=1;shadow=1;glass=0;comic=0;sketch=0;fontFamily=Helvetica;fontSize=12;fontColor=default;startSize=30;" parent="361" vertex="1">
                    <mxGeometry y="60" width="205" height="50" as="geometry"/>
                </mxCell>
                <mxCell id="364" value="Standalone Input Mode" style="swimlane;fontStyle=1;childLayout=stackLayout;horizontal=1;startSize=30;horizontalStack=0;resizeParent=1;resizeParentMax=0;resizeLast=0;collapsible=1;marginBottom=0;rounded=1;shadow=1;glass=0;sketch=0;strokeColor=#432D57;fillColor=#CC99FF;expand=1;treeFolding=0;treeMoving=0;moveCells=0;comic=0;fontFamily=Lucida Console;fontSize=16;noLabel=0;direction=east;fixDash=0;container=0;fontColor=#ffffff;opacity=10;" parent="361" vertex="1" collapsed="1">
                    <mxGeometry y="110" width="205" height="30" as="geometry">
                        <mxRectangle y="30" width="170" height="70" as="alternateBounds"/>
                    </mxGeometry>
                </mxCell>
                <mxCell id="365" value="Â " style="text;strokeColor=none;fillColor=none;align=left;verticalAlign=middle;spacingLeft=4;spacingRight=4;overflow=hidden;points=[[0,0.5],[1,0.5]];portConstraint=eastwest;rotatable=0;rounded=1;shadow=1;glass=0;comic=0;sketch=0;fontFamily=Helvetica;fontSize=12;fontColor=default;startSize=30;" parent="361" vertex="1">
                    <mxGeometry y="140" width="205" height="50" as="geometry"/>
                </mxCell>
                <mxCell id="366" style="edgeStyle=none;html=1;exitX=1;exitY=0.5;exitDx=0;exitDy=0;exitPerimeter=0;entryX=0;entryY=0;entryDx=0;entryDy=0;fontFamily=Helvetica;fontSize=12;fontColor=default;startSize=30;strokeColor=#33FF33;" parent="1" source="249" target="368" edge="1">
                    <mxGeometry relative="1" as="geometry">
                        <mxPoint x="774.9999999999998" y="580" as="sourcePoint"/>
                    </mxGeometry>
                </mxCell>
                <mxCell id="368" value="Components" style="swimlane;fontStyle=0;childLayout=stackLayout;horizontal=1;startSize=30;horizontalStack=0;resizeParent=1;resizeParentMax=0;resizeLast=0;collapsible=1;marginBottom=0;rounded=1;shadow=1;glass=0;comic=0;sketch=0;fontFamily=Helvetica;fontSize=12;fontColor=default;strokeColor=#000000;fillColor=default;gradientColor=none;" parent="1" vertex="1">
                    <mxGeometry x="877.5" y="540" width="170" height="220" as="geometry">
                        <mxRectangle x="560" width="50" height="30" as="alternateBounds"/>
                    </mxGeometry>
                </mxCell>
                <mxCell id="369" value="BoxCollider" style="swimlane;fontStyle=1;childLayout=stackLayout;horizontal=1;startSize=30;horizontalStack=0;resizeParent=1;resizeParentMax=0;resizeLast=0;collapsible=1;marginBottom=0;rounded=1;shadow=1;glass=0;sketch=0;strokeColor=#432D57;fillColor=#CC99FF;expand=1;treeFolding=0;treeMoving=0;moveCells=0;comic=0;fontFamily=Lucida Console;fontSize=16;noLabel=0;direction=east;fixDash=0;container=0;fontColor=#ffffff;opacity=10;" parent="368" vertex="1" collapsed="1">
                    <mxGeometry y="30" width="170" height="30" as="geometry">
                        <mxRectangle y="30" width="170" height="70" as="alternateBounds"/>
                    </mxGeometry>
                </mxCell>
                <mxCell id="370" value="Â " style="text;strokeColor=none;fillColor=none;align=left;verticalAlign=middle;spacingLeft=4;spacingRight=4;overflow=hidden;points=[[0,0.5],[1,0.5]];portConstraint=eastwest;rotatable=0;rounded=1;shadow=1;glass=0;comic=0;sketch=0;fontFamily=Helvetica;fontSize=12;fontColor=default;startSize=30;" parent="368" vertex="1">
                    <mxGeometry y="60" width="170" height="50" as="geometry"/>
                </mxCell>
                <mxCell id="373" value="TriggerDetection" style="swimlane;fontStyle=1;childLayout=stackLayout;horizontal=1;startSize=30;horizontalStack=0;resizeParent=1;resizeParentMax=0;resizeLast=0;collapsible=1;marginBottom=0;rounded=1;shadow=1;glass=0;sketch=0;strokeColor=#432D57;fillColor=#76608a;expand=1;treeFolding=0;treeMoving=0;moveCells=0;comic=0;fontFamily=Lucida Console;fontSize=16;noLabel=0;direction=east;fixDash=0;container=0;fontColor=#ffffff;" parent="368" vertex="1">
                    <mxGeometry y="110" width="170" height="60" as="geometry">
                        <mxRectangle y="190" width="170" height="30" as="alternateBounds"/>
                    </mxGeometry>
                </mxCell>
                <mxCell id="374" value="Tag" style="text;strokeColor=none;fillColor=none;align=left;verticalAlign=middle;spacingLeft=4;spacingRight=4;overflow=hidden;points=[[0,0.5],[1,0.5]];portConstraint=eastwest;rotatable=0;rounded=1;shadow=1;glass=0;comic=1;sketch=0;fontColor=default;opacity=30;labelBorderColor=#FF0000;horizontal=1;" parent="373" vertex="1">
                    <mxGeometry y="30" width="170" height="30" as="geometry"/>
                </mxCell>
                <mxCell id="375" value="Â " style="text;strokeColor=none;fillColor=none;align=left;verticalAlign=middle;spacingLeft=4;spacingRight=4;overflow=hidden;points=[[0,0.5],[1,0.5]];portConstraint=eastwest;rotatable=0;rounded=1;shadow=1;glass=0;comic=0;sketch=0;fontFamily=Helvetica;fontSize=12;fontColor=default;startSize=30;" parent="368" vertex="1">
                    <mxGeometry y="170" width="170" height="50" as="geometry"/>
                </mxCell>
                <mxCell id="378" value="Components" style="swimlane;fontStyle=0;childLayout=stackLayout;horizontal=1;startSize=30;horizontalStack=0;resizeParent=1;resizeParentMax=0;resizeLast=0;collapsible=1;marginBottom=0;rounded=1;shadow=1;glass=0;comic=0;sketch=0;fontFamily=Helvetica;fontSize=12;fontColor=default;strokeColor=#000000;fillColor=default;gradientColor=none;" parent="1" vertex="1">
                    <mxGeometry x="222.5" y="660" width="170" height="230" as="geometry">
                        <mxRectangle x="560" width="50" height="30" as="alternateBounds"/>
                    </mxGeometry>
                </mxCell>
                <mxCell id="379" value="CubeMesh" style="swimlane;fontStyle=1;childLayout=stackLayout;horizontal=1;startSize=30;horizontalStack=0;resizeParent=1;resizeParentMax=0;resizeLast=0;collapsible=1;marginBottom=0;rounded=1;shadow=1;glass=0;sketch=0;strokeColor=#432D57;fillColor=#CC99FF;expand=1;treeFolding=0;treeMoving=0;moveCells=0;comic=0;fontFamily=Lucida Console;fontSize=16;noLabel=0;direction=east;fixDash=0;container=0;fontColor=#ffffff;opacity=10;" parent="378" vertex="1" collapsed="1">
                    <mxGeometry y="30" width="170" height="30" as="geometry">
                        <mxRectangle y="30" width="170" height="70" as="alternateBounds"/>
                    </mxGeometry>
                </mxCell>
                <mxCell id="381" value="MeshRenderer" style="swimlane;fontStyle=1;childLayout=stackLayout;horizontal=1;startSize=30;horizontalStack=0;resizeParent=1;resizeParentMax=0;resizeLast=0;collapsible=1;marginBottom=0;rounded=1;shadow=1;glass=0;sketch=0;strokeColor=#432D57;fillColor=#CC99FF;expand=1;treeFolding=0;treeMoving=0;moveCells=0;comic=0;fontFamily=Lucida Console;fontSize=16;noLabel=0;direction=east;fixDash=0;container=0;fontColor=#ffffff;opacity=10;" parent="378" vertex="1" collapsed="1">
                    <mxGeometry y="60" width="170" height="30" as="geometry">
                        <mxRectangle y="110" width="170" height="70" as="alternateBounds"/>
                    </mxGeometry>
                </mxCell>
                <mxCell id="386" value="BoxCollider" style="swimlane;fontStyle=1;childLayout=stackLayout;horizontal=1;startSize=30;horizontalStack=0;resizeParent=1;resizeParentMax=0;resizeLast=0;collapsible=1;marginBottom=0;rounded=1;shadow=1;glass=0;sketch=0;strokeColor=#432D57;fillColor=#CC99FF;expand=1;treeFolding=0;treeMoving=0;moveCells=0;comic=0;fontFamily=Lucida Console;fontSize=16;noLabel=0;direction=east;fixDash=0;container=0;fontColor=#ffffff;opacity=20;" parent="378" vertex="1" collapsed="1">
                    <mxGeometry y="90" width="170" height="30" as="geometry">
                        <mxRectangle y="110" width="170" height="70" as="alternateBounds"/>
                    </mxGeometry>
                </mxCell>
                <mxCell id="382" value="Â " style="text;strokeColor=none;fillColor=none;align=left;verticalAlign=middle;spacingLeft=4;spacingRight=4;overflow=hidden;points=[[0,0.5],[1,0.5]];portConstraint=eastwest;rotatable=0;rounded=1;shadow=1;glass=0;comic=0;sketch=0;fontFamily=Helvetica;fontSize=12;fontColor=default;startSize=30;" parent="378" vertex="1">
                    <mxGeometry y="120" width="170" height="50" as="geometry"/>
                </mxCell>
                <mxCell id="383" value="Floor.cs" style="swimlane;fontStyle=1;childLayout=stackLayout;horizontal=1;startSize=30;horizontalStack=0;resizeParent=1;resizeParentMax=0;resizeLast=0;collapsible=1;marginBottom=0;rounded=1;shadow=1;glass=0;sketch=0;strokeColor=#432D57;fillColor=#76608a;expand=1;treeFolding=0;treeMoving=0;moveCells=0;comic=0;fontFamily=Lucida Console;fontSize=16;noLabel=0;direction=east;fixDash=0;container=0;fontColor=#ffffff;" parent="378" vertex="1">
                    <mxGeometry y="170" width="170" height="60" as="geometry">
                        <mxRectangle y="470" width="170" height="30" as="alternateBounds"/>
                    </mxGeometry>
                </mxCell>
                <mxCell id="387" value="TriggerDetector" style="text;strokeColor=none;fillColor=none;align=left;verticalAlign=middle;spacingLeft=4;spacingRight=4;overflow=hidden;points=[[0,0.5],[1,0.5]];portConstraint=eastwest;rotatable=0;rounded=1;shadow=1;glass=0;comic=1;sketch=0;fontColor=default;opacity=30;labelBorderColor=#FF0000;horizontal=1;" parent="383" vertex="1">
                    <mxGeometry y="30" width="170" height="30" as="geometry"/>
                </mxCell>
                <mxCell id="403" style="edgeStyle=none;html=1;exitX=1;exitY=0.5;exitDx=0;exitDy=0;exitPerimeter=0;entryX=0;entryY=0.5;entryDx=0;entryDy=0;entryPerimeter=0;fontFamily=Helvetica;fontSize=12;fontColor=#FF0000;startSize=30;strokeColor=#F0F0F0;" parent="1" source="389" target="391" edge="1">
                    <mxGeometry relative="1" as="geometry"/>
                </mxCell>
                <mxCell id="412" style="edgeStyle=none;html=1;exitX=0.855;exitY=1;exitDx=0;exitDy=-4.35;exitPerimeter=0;entryX=0;entryY=0;entryDx=0;entryDy=0;fontFamily=Helvetica;fontSize=12;fontColor=#FF0000;startSize=30;strokeColor=#33FF33;" parent="1" source="389" target="417" edge="1">
                    <mxGeometry relative="1" as="geometry"/>
                </mxCell>
                <mxCell id="389" value="Player" style="shape=cylinder3;whiteSpace=wrap;html=1;boundedLbl=1;backgroundOutline=1;size=15;fontFamily=Helvetica;fontSize=12;fontColor=rgb(240, 240, 240);align=center;strokeColor=rgb(240, 240, 240);fillColor=rgb(42, 42, 42);" parent="1" vertex="1">
                    <mxGeometry x="42.5" y="980" width="120" height="60" as="geometry"/>
                </mxCell>
                <mxCell id="390" style="edgeStyle=none;html=1;exitX=0;exitY=0.5;exitDx=0;exitDy=0;entryX=1;entryY=0.5;entryDx=0;entryDy=0;entryPerimeter=0;fontFamily=Helvetica;fontSize=12;fontColor=#FF0000;startSize=30;strokeColor=#FF0000;" parent="1" source="374" target="389" edge="1">
                    <mxGeometry relative="1" as="geometry"/>
                </mxCell>
                <mxCell id="399" style="edgeStyle=none;html=1;exitX=1;exitY=0.5;exitDx=0;exitDy=0;exitPerimeter=0;entryX=0;entryY=0;entryDx=0;entryDy=0;fontFamily=Helvetica;fontSize=12;fontColor=#FF0000;startSize=30;strokeColor=#33FF33;" parent="1" source="391" target="392" edge="1">
                    <mxGeometry relative="1" as="geometry"/>
                </mxCell>
                <mxCell id="391" value="BlobShadowPro" style="shape=cylinder3;whiteSpace=wrap;html=1;boundedLbl=1;backgroundOutline=1;size=15;fontFamily=Helvetica;fontSize=12;fontColor=rgb(240, 240, 240);align=center;strokeColor=rgb(240, 240, 240);fillColor=rgb(42, 42, 42);" parent="1" vertex="1">
                    <mxGeometry x="552.5" y="980" width="120" height="60" as="geometry"/>
                </mxCell>
                <mxCell id="392" value="Components" style="swimlane;fontStyle=0;childLayout=stackLayout;horizontal=1;startSize=30;horizontalStack=0;resizeParent=1;resizeParentMax=0;resizeLast=0;collapsible=1;marginBottom=0;rounded=1;shadow=1;glass=0;comic=0;sketch=0;fontFamily=Helvetica;fontSize=12;fontColor=default;strokeColor=#000000;fillColor=default;gradientColor=none;" parent="1" vertex="1">
                    <mxGeometry x="880" y="1010" width="170" height="90" as="geometry">
                        <mxRectangle x="560" width="50" height="30" as="alternateBounds"/>
                    </mxGeometry>
                </mxCell>
                <mxCell id="393" value="Projector" style="swimlane;fontStyle=1;childLayout=stackLayout;horizontal=1;startSize=30;horizontalStack=0;resizeParent=1;resizeParentMax=0;resizeLast=0;collapsible=1;marginBottom=0;rounded=1;shadow=1;glass=0;sketch=0;strokeColor=#432D57;fillColor=#CC99FF;expand=1;treeFolding=0;treeMoving=0;moveCells=0;comic=0;fontFamily=Lucida Console;fontSize=16;noLabel=0;direction=east;fixDash=0;container=0;fontColor=#ffffff;opacity=10;" parent="392" vertex="1">
                    <mxGeometry y="30" width="170" height="60" as="geometry">
                        <mxRectangle y="30" width="170" height="30" as="alternateBounds"/>
                    </mxGeometry>
                </mxCell>
                <mxCell id="401" value="Material" style="text;strokeColor=none;fillColor=none;align=left;verticalAlign=middle;spacingLeft=4;spacingRight=4;overflow=hidden;points=[[0,0.5],[1,0.5]];portConstraint=eastwest;rotatable=0;rounded=1;shadow=1;glass=0;comic=1;sketch=0;fontColor=default;opacity=30;labelBorderColor=default;horizontal=1;" parent="393" vertex="1">
                    <mxGeometry y="30" width="170" height="30" as="geometry"/>
                </mxCell>
                <mxCell id="417" value="Components" style="swimlane;fontStyle=0;childLayout=stackLayout;horizontal=1;startSize=30;horizontalStack=0;resizeParent=1;resizeParentMax=0;resizeLast=0;collapsible=1;marginBottom=0;rounded=1;shadow=1;glass=0;comic=0;sketch=0;fontFamily=Helvetica;fontSize=12;fontColor=default;strokeColor=#000000;fillColor=default;gradientColor=none;" vertex="1" parent="1">
                    <mxGeometry x="222.5" y="1150" width="187.5" height="590" as="geometry">
                        <mxRectangle x="560" width="50" height="30" as="alternateBounds"/>
                    </mxGeometry>
                </mxCell>
                <mxCell id="418" value="CubeMesh" style="swimlane;fontStyle=1;childLayout=stackLayout;horizontal=1;startSize=30;horizontalStack=0;resizeParent=1;resizeParentMax=0;resizeLast=0;collapsible=1;marginBottom=0;rounded=1;shadow=1;glass=0;sketch=0;strokeColor=#432D57;fillColor=#CC99FF;expand=1;treeFolding=0;treeMoving=0;moveCells=0;comic=0;fontFamily=Lucida Console;fontSize=16;noLabel=0;direction=east;fixDash=0;container=0;fontColor=#ffffff;opacity=10;" vertex="1" collapsed="1" parent="417">
                    <mxGeometry y="30" width="187.5" height="30" as="geometry">
                        <mxRectangle y="30" width="170" height="70" as="alternateBounds"/>
                    </mxGeometry>
                </mxCell>
                <mxCell id="419" value="MeshRenderer" style="swimlane;fontStyle=1;childLayout=stackLayout;horizontal=1;startSize=30;horizontalStack=0;resizeParent=1;resizeParentMax=0;resizeLast=0;collapsible=1;marginBottom=0;rounded=1;shadow=1;glass=0;sketch=0;strokeColor=#432D57;fillColor=#CC99FF;expand=1;treeFolding=0;treeMoving=0;moveCells=0;comic=0;fontFamily=Lucida Console;fontSize=16;noLabel=0;direction=east;fixDash=0;container=0;fontColor=#ffffff;opacity=10;" vertex="1" collapsed="1" parent="417">
                    <mxGeometry y="60" width="187.5" height="30" as="geometry">
                        <mxRectangle y="110" width="170" height="70" as="alternateBounds"/>
                    </mxGeometry>
                </mxCell>
                <mxCell id="420" value="SphereCollider" style="swimlane;fontStyle=1;childLayout=stackLayout;horizontal=1;startSize=30;horizontalStack=0;resizeParent=1;resizeParentMax=0;resizeLast=0;collapsible=1;marginBottom=0;rounded=1;shadow=1;glass=0;sketch=0;strokeColor=#432D57;fillColor=#CC99FF;expand=1;treeFolding=0;treeMoving=0;moveCells=0;comic=0;fontFamily=Lucida Console;fontSize=16;noLabel=0;direction=east;fixDash=0;container=0;fontColor=#ffffff;opacity=20;" vertex="1" collapsed="1" parent="417">
                    <mxGeometry y="90" width="187.5" height="30" as="geometry">
                        <mxRectangle y="110" width="170" height="70" as="alternateBounds"/>
                    </mxGeometry>
                </mxCell>
                <mxCell id="421" value="Rigidbody" style="swimlane;fontStyle=1;childLayout=stackLayout;horizontal=1;startSize=30;horizontalStack=0;resizeParent=1;resizeParentMax=0;resizeLast=0;collapsible=1;marginBottom=0;rounded=1;shadow=1;glass=0;sketch=0;strokeColor=#432D57;fillColor=#CC99FF;expand=1;treeFolding=0;treeMoving=0;moveCells=0;comic=0;fontFamily=Lucida Console;fontSize=16;noLabel=0;direction=east;fixDash=0;container=0;fontColor=#ffffff;opacity=20;" vertex="1" collapsed="1" parent="417">
                    <mxGeometry y="120" width="187.5" height="30" as="geometry">
                        <mxRectangle y="110" width="170" height="70" as="alternateBounds"/>
                    </mxGeometry>
                </mxCell>
                <mxCell id="422" value="Â " style="text;strokeColor=none;fillColor=none;align=left;verticalAlign=middle;spacingLeft=4;spacingRight=4;overflow=hidden;points=[[0,0.5],[1,0.5]];portConstraint=eastwest;rotatable=0;rounded=1;shadow=1;glass=0;comic=0;sketch=0;fontFamily=Helvetica;fontSize=12;fontColor=default;startSize=30;" vertex="1" parent="417">
                    <mxGeometry y="150" width="187.5" height="50" as="geometry"/>
                </mxCell>
                <mxCell id="423" value="GroundDetection.cs" style="swimlane;fontStyle=1;childLayout=stackLayout;horizontal=1;startSize=30;horizontalStack=0;resizeParent=1;resizeParentMax=0;resizeLast=0;collapsible=1;marginBottom=0;rounded=1;shadow=1;glass=0;sketch=0;strokeColor=#432D57;fillColor=#76608a;expand=1;treeFolding=0;treeMoving=0;moveCells=0;comic=0;fontFamily=Lucida Console;fontSize=16;noLabel=0;direction=east;fixDash=0;container=0;fontColor=#ffffff;" vertex="1" parent="417">
                    <mxGeometry y="200" width="187.5" height="120" as="geometry">
                        <mxRectangle y="470" width="170" height="30" as="alternateBounds"/>
                    </mxGeometry>
                </mxCell>
                <mxCell id="424" value="Layers GROUND" style="text;strokeColor=none;fillColor=none;align=left;verticalAlign=middle;spacingLeft=4;spacingRight=4;overflow=hidden;points=[[0,0.5],[1,0.5]];portConstraint=eastwest;rotatable=0;rounded=1;shadow=1;glass=0;comic=1;sketch=0;fontColor=default;opacity=30;labelBorderColor=#FF8000;horizontal=1;" vertex="1" parent="423">
                    <mxGeometry y="30" width="187.5" height="30" as="geometry"/>
                </mxCell>
                <mxCell id="425" value="Radius" style="text;strokeColor=none;fillColor=none;align=left;verticalAlign=middle;spacingLeft=4;spacingRight=4;overflow=hidden;points=[[0,0.5],[1,0.5]];portConstraint=eastwest;rotatable=0;rounded=1;shadow=1;glass=0;comic=1;sketch=0;fontColor=default;opacity=30;labelBorderColor=#F0F0F0;horizontal=1;" vertex="1" parent="423">
                    <mxGeometry y="60" width="187.5" height="30" as="geometry"/>
                </mxCell>
                <mxCell id="426" value="Distance" style="text;strokeColor=none;fillColor=none;align=left;verticalAlign=middle;spacingLeft=4;spacingRight=4;overflow=hidden;points=[[0,0.5],[1,0.5]];portConstraint=eastwest;rotatable=0;rounded=1;shadow=1;glass=0;comic=1;sketch=0;fontColor=default;opacity=30;labelBorderColor=#F0F0F0;horizontal=1;" vertex="1" parent="423">
                    <mxGeometry y="90" width="187.5" height="30" as="geometry"/>
                </mxCell>
                <mxCell id="439" value="Â " style="text;strokeColor=none;fillColor=none;align=left;verticalAlign=middle;spacingLeft=4;spacingRight=4;overflow=hidden;points=[[0,0.5],[1,0.5]];portConstraint=eastwest;rotatable=0;rounded=1;shadow=1;glass=0;comic=0;sketch=0;fontFamily=Helvetica;fontSize=12;fontColor=default;startSize=30;" vertex="1" parent="417">
                    <mxGeometry y="320" width="187.5" height="50" as="geometry"/>
                </mxCell>
                <mxCell id="428" value="Player.cs" style="swimlane;fontStyle=1;childLayout=stackLayout;horizontal=1;startSize=30;horizontalStack=0;resizeParent=1;resizeParentMax=0;resizeLast=0;collapsible=1;marginBottom=0;rounded=1;shadow=1;glass=0;sketch=0;strokeColor=#432D57;fillColor=#76608a;expand=1;treeFolding=0;treeMoving=0;moveCells=0;comic=0;fontFamily=Lucida Console;fontSize=16;noLabel=0;direction=east;fixDash=0;container=0;fontColor=#ffffff;" vertex="1" parent="417">
                    <mxGeometry y="370" width="187.5" height="60" as="geometry">
                        <mxRectangle y="470" width="170" height="30" as="alternateBounds"/>
                    </mxGeometry>
                </mxCell>
                <mxCell id="429" value="TriggerDetection" style="text;strokeColor=none;fillColor=none;align=left;verticalAlign=middle;spacingLeft=4;spacingRight=4;overflow=hidden;points=[[0,0.5],[1,0.5]];portConstraint=eastwest;rotatable=0;rounded=1;shadow=1;glass=0;comic=1;sketch=0;fontColor=default;opacity=30;labelBorderColor=#FF0000;horizontal=1;" vertex="1" parent="428">
                    <mxGeometry y="30" width="187.5" height="30" as="geometry"/>
                </mxCell>
                <mxCell id="438" value="Â " style="text;strokeColor=none;fillColor=none;align=left;verticalAlign=middle;spacingLeft=4;spacingRight=4;overflow=hidden;points=[[0,0.5],[1,0.5]];portConstraint=eastwest;rotatable=0;rounded=1;shadow=1;glass=0;comic=0;sketch=0;fontFamily=Helvetica;fontSize=12;fontColor=default;startSize=30;" vertex="1" parent="417">
                    <mxGeometry y="430" width="187.5" height="50" as="geometry"/>
                </mxCell>
                <mxCell id="436" value="TriggerDetection" style="swimlane;fontStyle=1;childLayout=stackLayout;horizontal=1;startSize=30;horizontalStack=0;resizeParent=1;resizeParentMax=0;resizeLast=0;collapsible=1;marginBottom=0;rounded=1;shadow=1;glass=0;sketch=0;strokeColor=#432D57;fillColor=#76608a;expand=1;treeFolding=0;treeMoving=0;moveCells=0;comic=0;fontFamily=Lucida Console;fontSize=16;noLabel=0;direction=east;fixDash=0;container=0;fontColor=#ffffff;" vertex="1" parent="417">
                    <mxGeometry y="480" width="187.5" height="60" as="geometry">
                        <mxRectangle y="190" width="170" height="30" as="alternateBounds"/>
                    </mxGeometry>
                </mxCell>
                <mxCell id="437" value="Tag" style="text;strokeColor=none;fillColor=none;align=left;verticalAlign=middle;spacingLeft=4;spacingRight=4;overflow=hidden;points=[[0,0.5],[1,0.5]];portConstraint=eastwest;rotatable=0;rounded=1;shadow=1;glass=0;comic=1;sketch=0;fontColor=default;opacity=30;labelBorderColor=#FF0000;horizontal=1;" vertex="1" parent="436">
                    <mxGeometry y="30" width="187.5" height="30" as="geometry"/>
                </mxCell>
                <mxCell id="427" value="Â " style="text;strokeColor=none;fillColor=none;align=left;verticalAlign=middle;spacingLeft=4;spacingRight=4;overflow=hidden;points=[[0,0.5],[1,0.5]];portConstraint=eastwest;rotatable=0;rounded=1;shadow=1;glass=0;comic=0;sketch=0;fontFamily=Helvetica;fontSize=12;fontColor=default;startSize=30;" vertex="1" parent="417">
                    <mxGeometry y="540" width="187.5" height="50" as="geometry"/>
                </mxCell>
                <mxCell id="442" style="edgeStyle=none;html=1;exitX=1;exitY=0.5;exitDx=0;exitDy=0;strokeColor=#007FFF;" edge="1" parent="1" source="441" target="391">
                    <mxGeometry relative="1" as="geometry"/>
                </mxCell>
                <mxCell id="441" value="" style="shape=sumEllipse;perimeter=ellipsePerimeter;whiteSpace=wrap;html=1;backgroundOutline=1;rounded=1;shadow=1;glass=0;comic=0;sketch=0;fontFamily=Helvetica;fontSize=12;fontColor=default;startSize=30;strokeColor=#007FFF;fillColor=default;gradientColor=none;" vertex="1" parent="1">
                    <mxGeometry x="82.5" y="910" width="30" height="30" as="geometry"/>
                </mxCell>
                <mxCell id="447" style="edgeStyle=none;html=1;exitX=1;exitY=0.5;exitDx=0;exitDy=0;entryX=0;entryY=0.5;entryDx=0;entryDy=0;strokeColor=#FF3399;" edge="1" parent="1" source="446" target="448">
                    <mxGeometry relative="1" as="geometry">
                        <Array as="points">
                            <mxPoint x="-80" y="190"/>
                        </Array>
                    </mxGeometry>
                </mxCell>
                <mxCell id="446" value="Materials" style="ellipse;shape=doubleEllipse;whiteSpace=wrap;html=1;aspect=fixed;labelBorderColor=none;strokeColor=#FF3399;" vertex="1" parent="1">
                    <mxGeometry x="-207.5" y="240" width="80" height="80" as="geometry"/>
                </mxCell>
                <mxCell id="449" style="edgeStyle=none;html=1;exitX=1;exitY=0.5;exitDx=0;exitDy=0;entryX=0;entryY=0.5;entryDx=0;entryDy=0;fontColor=#FF3399;strokeColor=#FF3399;" edge="1" parent="1" source="448" target="214">
                    <mxGeometry relative="1" as="geometry"/>
                </mxCell>
                <mxCell id="448" value="" style="shape=sumEllipse;perimeter=ellipsePerimeter;whiteSpace=wrap;html=1;backgroundOutline=1;rounded=1;shadow=1;glass=0;comic=0;sketch=0;fontFamily=Helvetica;fontSize=12;fontColor=default;startSize=30;strokeColor=#FF3399;fillColor=default;gradientColor=none;" vertex="1" parent="1">
                    <mxGeometry x="615" y="170" width="30" height="30" as="geometry"/>
                </mxCell>
                <mxCell id="451" style="edgeStyle=none;html=1;exitX=1;exitY=0.5;exitDx=0;exitDy=0;entryX=0;entryY=0;entryDx=0;entryDy=0;fontFamily=Helvetica;fontSize=12;fontColor=default;startSize=30;strokeColor=#33FF33;" edge="1" parent="1">
                    <mxGeometry relative="1" as="geometry">
                        <mxPoint x="645" y="250" as="sourcePoint"/>
                        <mxPoint x="877.5" y="340" as="targetPoint"/>
                    </mxGeometry>
                </mxCell>
            </root>
        </mxGraphModel>
    </diagram>
</mxfile>